<svg width="136" height="28" viewBox="0 0 136 28" fill="none" xmlns="http://www.w3.org/2000/svg">
<path d="M0 0H136C132.159 0.746804 128.775 2.99346 126.595 6.24275L119.606 16.6612C116.825 20.8074 115.434 22.8806 113.601 24.3811C111.978 25.7095 110.11 26.7059 108.103 27.3136C105.835 28 103.339 28 98.3464 28H38.5409C33.2393 28 30.5885 28 28.2081 27.2376C26.1016 26.563 24.1579 25.459 22.4997 23.9952C20.6257 22.3411 19.2682 20.0643 16.553 15.5108L12.1405 8.11056C11.9047 7.71519 11.7868 7.51751 11.6692 7.33196C9.25384 3.52305 5.34312 0.910456 0.899716 0.137306C0.683255 0.0996414 0.455503 0.0664276 0 0Z" fill="white" fill-opacity="0.08"/>
</svg>
