<svg preserveAspectRatio="none" width="100%" height="100%" overflow="visible" style="display: block;" viewBox="0 0 540 296" fill="none" xmlns="http://www.w3.org/2000/svg">
<g id="hatch-42 1" clip-path="url(#clip0_0_13)">
<path id="Vector" opacity="0.08" d="M-45 15V72M-43.1036 15V72M-41.2072 15V72M-39.3109 15V72M-37.4145 15V72M-35.5181 15V72M-33.6217 15V72M-31.7253 15V72M-29.8289 15V72M-27.9326 15V72M-26.0362 15V72M-24.1398 15V72M-22.2434 15V72M-20.347 15V72M-18.4506 15V72M-16.5543 15V72M-14.6579 15V72M-12.7615 15V72M-10.8651 15V72M-8.96872 15V72M-7.07234 15V72M-5.17595 15V72M-3.27957 15V72M-1.38319 15V72M0.513196 15V72M2.40958 15V72M4.30596 15V72M6.20235 15V72M8.09873 15V72M9.99511 15V72M11.8915 15V72M13.7879 15V72M15.6843 15V72M17.5806 15V72M47.9228 15V72M49.8192 15V72M51.7155 15V72M53.6119 15V72M55.5083 15V72M57.4047 15V72M59.3011 15V72M61.1975 15V72M63.0938 15V72M64.9902 15V72M66.8866 15V72M68.783 15V72M70.6794 15V72M72.5758 15V72M74.4721 15V72M76.3685 15V72M78.2649 15V72M80.1613 15V281M164.076 15V72M165.973 15V72M167.869 15V72M169.765 15V72M171.662 15V72M173.558 15V72M175.455 15V72M177.351 15V72M179.247 15V72M181.144 15V72M183.04 15V72M184.936 15V72M186.833 15V72M188.729 15V72M190.626 15V72M192.522 15V72M194.418 15V72M196.315 15V72M198.211 15V72M200.108 15V72M202.004 15V72M203.9 15V72M205.797 15V72M207.693 15V72M209.589 15V72M211.486 15V72M213.382 15V72M215.279 15V72M217.175 15V72M219.071 15V72M220.968 15V72M222.864 15V72M224.761 15V72M226.657 15V72M228.553 15V72M230.45 15V72M232.346 15V72M234.242 15V72M236.139 15V72M238.035 15V72M239.932 15V72M241.828 15V72M243.724 15V72M245.621 15V72M247.517 15V72M249.413 15V72M251.31 15V72M253.206 15V72M255.103 15V72M256.999 15V72M258.895 15V72M260.792 15V72M262.688 15V72M264.585 15V72M266.481 15V72M268.377 15V72M270.274 15V72M272.17 15V72M274.066 15V72M275.963 15V72M277.859 15V281M353.24 15V72M355.137 15V72M357.033 15V72M358.93 15V72M360.826 15V72M362.722 15V72M364.619 15V72M366.515 15V72M368.412 15V72M370.308 15V72M372.204 15V72M374.101 15V72M375.997 15V72M377.893 15V72M379.79 15V72M381.686 15V72M19.0029 72V137.075M20.8993 72V137.075M22.7957 72V137.075M24.6921 72V137.075M26.5885 72V137.075M28.4848 72V137.075M30.3812 72V137.075M32.2776 72V137.075M34.174 72V137.075M36.0704 72V137.075M37.9668 72V137.075M39.8631 72V137.075M41.7595 72V137.075M43.6559 72V137.075M45.5523 72V137.075M47.4487 72V137.075M82.0577 72V137.075M83.9541 72V137.075M85.8504 72V137.075M87.7468 72V137.075M89.6432 72V137.075M91.5396 72V137.075M93.436 72V137.075M95.3324 72V137.075M97.2287 72V137.075M99.1251 72V137.075M101.022 72V137.075M102.918 72V137.075M104.814 72V137.075M106.711 72V137.075M108.607 72V137.075M110.503 72V137.075M112.4 72V137.075M114.296 72V137.075M116.193 72V137.075M118.089 72V137.075M119.985 72V137.075M121.882 72V137.075M123.778 72V137.075M125.674 72V137.075M127.571 72V137.075M129.467 72V137.075M131.364 72V137.075M133.26 72V137.075M135.156 72V137.075M137.053 72V137.075M138.949 72V137.075M140.846 72V137.075M142.742 72V137.075M144.638 72V137.075M146.535 72V137.075M148.431 72V137.075M150.327 72V137.075M152.224 72V137.075M154.12 72V137.075M156.017 72V137.075M157.913 72V137.075M159.809 72V137.075M161.706 72V137.075M163.602 72V137.075M279.756 72V137.075M281.652 72V137.075M283.548 72V137.075M285.445 72V137.075M287.341 72V137.075M289.238 72V137.075M291.134 72V137.075M293.03 72V137.075M294.927 72V137.075M296.823 72V137.075M298.719 72V137.075M300.616 72V137.075M302.512 72V137.075M304.409 72V137.075M306.305 72V137.075M308.201 72V137.075M310.098 72V137.075M311.994 72V137.075M313.891 72V137.075M315.787 72V137.075M317.683 72V137.075M319.58 72V137.075M321.476 72V137.075M323.372 72V137.075M325.269 72V137.075M327.165 72V137.075M329.062 72V137.075M330.958 72V137.075M332.854 72V137.075M334.751 72V137.075M336.647 72V137.075M338.543 72V137.075M340.44 72V137.075M342.336 72V137.075M344.233 72V137.075M346.129 72V137.075M348.025 72V137.075M349.922 72V137.075M351.818 72V137.075M-45 137.075V201.2M-43.1036 137.075V201.2M-41.2072 137.075V201.2M-39.3109 137.075V201.2M-37.4145 137.075V201.2M-35.5181 137.075V201.2M-33.6217 137.075V201.2M-31.7253 137.075V201.2M-29.8289 137.075V201.2M-27.9326 137.075V201.2M-26.0362 137.075V201.2M-24.1398 137.075V201.2M-22.2434 137.075V201.2M-20.347 137.075V201.2M-18.4506 137.075V201.2M-16.5543 137.075V201.2M-14.6579 137.075V201.2M-12.7615 137.075V201.2M-10.8651 137.075V201.2M-8.96872 137.075V201.2M-7.07234 137.075V201.2M-5.17595 137.075V201.2M-3.27957 137.075V201.2M-1.38319 137.075V201.2M0.513196 137.075V201.2M2.40958 137.075V201.2M4.30596 137.075V201.2M6.20235 137.075V201.2M8.09873 137.075V201.2M9.99511 137.075V201.2M11.8915 137.075V201.2M13.7879 137.075V201.2M15.6843 137.075V201.2M17.5806 137.075V201.2M47.9228 137.075V201.2M49.8192 137.075V201.2M51.7155 137.075V201.2M53.6119 137.075V201.2M55.5083 137.075V201.2M57.4047 137.075V201.2M59.3011 137.075V201.2M61.1975 137.075V201.2M63.0938 137.075V201.2M64.9902 137.075V201.2M66.8866 137.075V201.2M68.783 137.075V201.2M70.6794 137.075V201.2M72.5758 137.075V201.2M74.4721 137.075V201.2M76.3685 137.075V201.2M78.2649 137.075V201.2M164.076 137.075V201.2M165.973 137.075V201.2M167.869 137.075V201.2M169.765 137.075V201.2M171.662 137.075V201.2M173.558 137.075V201.2M175.455 137.075V201.2M177.351 137.075V201.2M179.247 137.075V201.2M181.144 137.075V201.2M183.04 137.075V201.2M184.936 137.075V201.2M186.833 137.075V201.2M188.729 137.075V201.2M190.626 137.075V201.2M192.522 137.075V201.2M194.418 137.075V201.2M196.315 137.075V201.2M198.211 137.075V201.2M200.108 137.075V201.2M202.004 137.075V201.2M203.9 137.075V201.2M205.797 137.075V201.2M207.693 137.075V201.2M209.589 137.075V201.2M211.486 137.075V201.2M213.382 137.075V201.2M215.279 137.075V201.2M217.175 137.075V201.2M219.071 137.075V201.2M220.968 137.075V201.2M222.864 137.075V201.2M224.761 137.075V201.2M226.657 137.075V201.2M228.553 137.075V201.2M230.45 137.075V201.2M232.346 137.075V201.2M234.242 137.075V201.2M236.139 137.075V201.2M238.035 137.075V201.2M239.932 137.075V201.2M241.828 137.075V201.2M243.724 137.075V201.2M245.621 137.075V201.2M247.517 137.075V201.2M249.413 137.075V201.2M251.31 137.075V201.2M253.206 137.075V201.2M255.103 137.075V201.2M256.999 137.075V201.2M258.895 137.075V201.2M260.792 137.075V201.2M262.688 137.075V201.2M264.585 137.075V201.2M266.481 137.075V201.2M268.377 137.075V201.2M270.274 137.075V201.2M272.17 137.075V201.2M274.066 137.075V201.2M275.963 137.075V201.2M353.24 137.075V201.2M355.137 137.075V201.2M357.033 137.075V201.2M358.93 137.075V201.2M360.826 137.075V201.2M362.722 137.075V201.2M364.619 137.075V201.2M366.515 137.075V201.2M368.412 137.075V201.2M370.308 137.075V201.2M372.204 137.075V201.2M374.101 137.075V201.2M375.997 137.075V201.2M377.893 137.075V201.2M379.79 137.075V201.2M381.686 137.075V201.2M82.0577 201.2V243.475M83.9541 201.2V243.475M85.8504 201.2V243.475M87.7468 201.2V243.475M89.6432 201.2V243.475M91.5396 201.2V243.475M93.436 201.2V243.475M95.3324 201.2V243.475M97.2287 201.2V243.475M99.1251 201.2V243.475M101.022 201.2V243.475M102.918 201.2V243.475M104.814 201.2V243.475M106.711 201.2V243.475M108.607 201.2V243.475M110.503 201.2V243.475M112.4 201.2V243.475M114.296 201.2V243.475M116.193 201.2V243.475M118.089 201.2V243.475M119.985 201.2V243.475M121.882 201.2V243.475M123.778 201.2V243.475M125.674 201.2V243.475M127.571 201.2V243.475M129.467 201.2V243.475M131.364 201.2V243.475M133.26 201.2V243.475M135.156 201.2V243.475M137.053 201.2V243.475M138.949 201.2V243.475M140.846 201.2V243.475M142.742 201.2V243.475M144.638 201.2V243.475M146.535 201.2V243.475M148.431 201.2V243.475M150.327 201.2V243.475M152.224 201.2V243.475M154.12 201.2V243.475M156.017 201.2V243.475M157.913 201.2V243.475M159.809 201.2V243.475M161.706 201.2V243.475M163.602 201.2V243.475M279.756 201.2V243.475M281.652 201.2V243.475M283.548 201.2V243.475M285.445 201.2V243.475M287.341 201.2V243.475M289.238 201.2V243.475M291.134 201.2V243.475M293.03 201.2V243.475M294.927 201.2V243.475M296.823 201.2V243.475M298.719 201.2V243.475M300.616 201.2V243.475M302.512 201.2V243.475M304.409 201.2V243.475M306.305 201.2V243.475M308.201 201.2V243.475M310.098 201.2V243.475M311.994 201.2V243.475M313.891 201.2V243.475M315.787 201.2V243.475M317.683 201.2V243.475M319.58 201.2V243.475M321.476 201.2V243.475M323.372 201.2V243.475M325.269 201.2V243.475M327.165 201.2V243.475M329.062 201.2V243.475M330.958 201.2V243.475M332.854 201.2V243.475M334.751 201.2V243.475M336.647 201.2V243.475M338.543 201.2V243.475M340.44 201.2V243.475M342.336 201.2V243.475M344.233 201.2V243.475M346.129 201.2V243.475M348.025 201.2V243.475M349.922 201.2V243.475M351.818 201.2V243.475M383.109 201.2V243.475M385.005 201.2V243.475M386.901 201.2V243.475M388.798 201.2V243.475M390.694 201.2V243.475M392.59 201.2V243.475M394.487 201.2V243.475M396.383 201.2V243.475M398.28 201.2V243.475M400.176 201.2V243.475M402.072 201.2V243.475M403.969 201.2V243.475M405.865 201.2V243.475M407.761 201.2V243.475M409.658 201.2V243.475M411.554 201.2V243.475M413.451 201.2V243.475M415.347 201.2V243.475M417.243 201.2V243.475M419.14 201.2V243.475M421.036 201.2V243.475M422.933 201.2V243.475M424.829 201.2V243.475M426.725 201.2V243.475M428.622 201.2V243.475M430.518 201.2V243.475M432.414 201.2V243.475M434.311 201.2V243.475M436.207 201.2V243.475M438.104 201.2V243.475M440 201.2V243.475M-45 243.475V281M-43.1036 243.475V281M-41.2072 243.475V281M-39.3109 243.475V281M-37.4145 243.475V281M-35.5181 243.475V281M-33.6217 243.475V281M-31.7253 243.475V281M-29.8289 243.475V281M-27.9326 243.475V281M-26.0362 243.475V281M-24.1398 243.475V281M-22.2434 243.475V281M-20.347 243.475V281M-18.4506 243.475V281M-16.5543 243.475V281M-14.6579 243.475V281M-12.7615 243.475V281M-10.8651 243.475V281M-8.96872 243.475V281M-7.07234 243.475V281M-5.17595 243.475V281M-3.27957 243.475V281M-1.38319 243.475V281M0.513196 243.475V281M2.40958 243.475V281M4.30596 243.475V281M6.20235 243.475V281M8.09873 243.475V281M9.99511 243.475V281M11.8915 243.475V281M13.7879 243.475V281M15.6843 243.475V281M17.5806 243.475V281M47.9228 243.475V281M49.8192 243.475V281M51.7155 243.475V281M53.6119 243.475V281M55.5083 243.475V281M57.4047 243.475V281M59.3011 243.475V281M61.1975 243.475V281M63.0938 243.475V281M64.9902 243.475V281M66.8866 243.475V281M68.783 243.475V281M70.6794 243.475V281M72.5758 243.475V281M74.4721 243.475V281M76.3685 243.475V281M78.2649 243.475V281M164.076 243.475V281M165.973 243.475V281M167.869 243.475V281M169.765 243.475V281M171.662 243.475V281M173.558 243.475V281M175.455 243.475V281M177.351 243.475V281M179.247 243.475V281M181.144 243.475V281M183.04 243.475V281M184.936 243.475V281M186.833 243.475V281M188.729 243.475V281M190.626 243.475V281M192.522 243.475V281M194.418 243.475V281M196.315 243.475V281M198.211 243.475V281M200.108 243.475V281M202.004 243.475V281M203.9 243.475V281M205.797 243.475V281M207.693 243.475V281M209.589 243.475V281M211.486 243.475V281M213.382 243.475V281M215.279 243.475V281M217.175 243.475V281M219.071 243.475V281M220.968 243.475V281M222.864 243.475V281M224.761 243.475V281M226.657 243.475V281M228.553 243.475V281M230.45 243.475V281M232.346 243.475V281M234.242 243.475V281M236.139 243.475V281M238.035 243.475V281M239.932 243.475V281M241.828 243.475V281M243.724 243.475V281M245.621 243.475V281M247.517 243.475V281M249.413 243.475V281M251.31 243.475V281M253.206 243.475V281M255.103 243.475V281M256.999 243.475V281M258.895 243.475V281M260.792 243.475V281M262.688 243.475V281M264.585 243.475V281M266.481 243.475V281M268.377 243.475V281M270.274 243.475V281M272.17 243.475V281M274.066 243.475V281M275.963 243.475V281M353.24 243.475V281M355.137 243.475V281M357.033 243.475V281M358.93 243.475V281M360.826 243.475V281M362.722 243.475V281M364.619 243.475V281M366.515 243.475V281M368.412 243.475V281M370.308 243.475V281M372.204 243.475V281M374.101 243.475V281M375.997 243.475V281M377.893 243.475V281M379.79 243.475V281M381.686 243.475V281" stroke="url(#paint0_linear_0_13)"/>
</g>
<defs>
<linearGradient id="paint0_linear_0_13" x1="197.5" y1="15" x2="197.5" y2="274.709" gradientUnits="userSpaceOnUse">
<stop stop-color="white" stop-opacity="0"/>
<stop offset="0.5" stop-color="white"/>
<stop offset="1" stop-color="white" stop-opacity="0"/>
</linearGradient>
<clipPath id="clip0_0_13">
<rect width="540" height="296" fill="white"/>
</clipPath>
</defs>
</svg>
