<svg preserveAspectRatio="none" width="100%" height="100%" overflow="visible" style="display: block;" viewBox="0 0 103 105.309" fill="none" xmlns="http://www.w3.org/2000/svg">
<g id="Group 626858">
<path id="Polygon 1" opacity="0.5" d="M51.5 1.1547L96.1003 26.9047V78.4047L51.5 104.155L6.89969 78.4047V26.9047L51.5 1.1547Z" stroke="var(--stroke-0, white)" stroke-width="2" stroke-dasharray="4 4"/>
<g id="Group 626863">
<path id="Vector" d="M52 41.4047C38.5 41.4047 34 52.6547 34 52.6547C34 52.6547 38.5 63.9047 52 63.9047C65.5 63.9047 70 52.6547 70 52.6547C70 52.6547 65.5 41.4047 52 41.4047Z" stroke="var(--stroke-0, white)" stroke-width="2"/>
<path id="Vector 853" d="M36.25 68.4047L67.75 36.9047" stroke="var(--stroke-0, white)" stroke-width="2"/>
<path id="Ellipse 891" d="M57.625 52.6547C57.625 55.7613 55.1066 58.2797 52 58.2797M46.375 52.6547C46.375 49.5481 48.8934 47.0297 52 47.0297" stroke="var(--stroke-0, white)" stroke-width="2"/>
</g>
</g>
</svg>
