<svg preserveAspectRatio="none" width="100%" height="100%" overflow="visible" style="display: block;" viewBox="0 0 40 40" fill="none" xmlns="http://www.w3.org/2000/svg">
<g id="clock">
<rect width="40" height="40" rx="12" fill="var(--fill-0, white)" fill-opacity="0.08"/>
<path id="Union" fill-rule="evenodd" clip-rule="evenodd" d="M27 13V18.5664H21.4336V16.7109H23.957C23.2809 15.8971 22.3673 15.3085 21.3379 15.0312C20.1484 14.711 18.8829 14.8281 17.7725 15.3613C16.6624 15.8946 15.7807 16.8083 15.2871 17.9365C14.7935 19.065 14.72 20.3335 15.082 21.5107C15.4441 22.6881 16.2172 23.6974 17.2598 24.3535C18.3023 25.0095 19.5465 25.2698 20.7646 25.0869C21.9826 24.9039 23.0946 24.2887 23.8984 23.3555C24.7019 22.4224 25.144 21.2323 25.1445 20.001H27C26.9996 23.8665 23.8665 26.9996 20.001 27C16.1351 27 13.0004 23.8668 13 20.001C13 16.1348 16.1348 13 20.001 13L20.4072 13.0117C21.3535 13.0665 22.2805 13.3132 23.1309 13.7383C23.8905 14.1182 24.5716 14.6341 25.1445 15.2559V13H27ZM23.0176 13.9648L22.708 13.8193C22.7002 13.8159 22.6915 13.813 22.6836 13.8096C22.796 13.8583 22.9076 13.9099 23.0176 13.9648Z" fill="var(--fill-0, white)"/>
</g>
</svg>
